<svg width="512" height="512" viewBox="0 0 512 512" fill="none" xmlns="http://www.w3.org/2000/svg">
  <defs>
    <linearGradient id="grad_blue" x1="64" y1="64" x2="448" y2="448" gradientUnits="userSpaceOnUse">
      <stop stop-color="#020617"/> 
      <stop offset="1" stop-color="#1E1B4B"/>
    </linearGradient>
    
    <linearGradient id="grad_gold" x1="230" y1="230" x2="330" y2="330" gradientUnits="userSpaceOnUse">
      <stop stop-color="#FBBF24"/>
      <stop offset="1" stop-color="#D97706"/>
    </linearGradient>

    <filter id="fold_texture" x="-20%" y="-20%" width="140%" height="140%">
      <feGaussianBlur stdDeviation="2" result="blur"/>
      <feSpecularLighting in="blur" surfaceScale="5" specularConstant="0.75" specularExponent="20" lighting-color="#ffffff" result="light">
        <feDistantLight azimuth="45" elevation="55"/>
      </feSpecularLighting>
      <feComposite in="light" in2="SourceGraphic" operator="in"/>
    </filter>
  </defs>

  <rect width="512" height="512" rx="110" fill="url(#grad_blue)"/>
  
  <g filter="url(#fold_texture)">
    <path d="M131 181L256 107L320 145V220L256 182L131 181Z" fill="#3B82F6" fill-opacity="0.9"/>
    <path d="M131 181V331L256 405V256L131 181Z" fill="#1E40AF"/>
    
    <path d="M256 107L381 181V331L256 256V107Z" fill="#0F172A" fill-opacity="0.4"/>
    
    <path d="M256 244L332 288L280 318L204 274L256 244Z" fill="url(#grad_gold)">
      <animate attributeName="fill-opacity" values="0.9;1;0.9" dur="3s" repeatCount="indefinite" />
    </path>
    
    <path d="M256 182L332 226V288L256 244V182Z" fill="#FDE68A" fill-opacity="0.2"/>
  </g>

  <circle cx="256" cy="107" r="3" fill="#60A5FA" fill-opacity="0.5"/>
  <circle cx="131" cy="181" r="3" fill="#60A5FA" fill-opacity="0.5"/>
  <circle cx="381" cy="331" r="3" fill="#60A5FA" fill-opacity="0.5"/>
</svg>
