<svg width="512" height="512" viewBox="0 0 512 512" fill="none" xmlns="http://www.w3.org/2000/svg">
  <defs>
    <radialGradient id="bg_grad" cx="50%" cy="50%" r="50%" fx="50%" fy="50%">
      <stop offset="0%" stop-color="#1A2B4D" />
      <stop offset="100%" stop-color="#050A14" />
    </radialGradient>
    
    <linearGradient id="fold_blue" x1="0%" y1="0%" x2="100%" y2="100%">
      <stop offset="0%" stop-color="#2D5BFF" />
      <stop offset="100%" stop-color="#142850" />
    </linearGradient>

    <linearGradient id="fold_gold" x1="0%" y1="0%" x2="100%" y2="0%">
      <stop offset="0%" stop-color="#FFD700" />
      <stop offset="50%" stop-color="#FDB813" />
      <stop offset="100%" stop-color="#B8860B" />
    </linearGradient>

    <filter id="shadow" x="-20%" y="-20%" width="140%" height="140%">
      <stop offset="0%" stop-color="#FFD86A" />
      <feGaussianBlur in="SourceAlpha" stdDeviation="8" />
      <feOffset dx="0" dy="4" />
      <feComponentTransfer>
        <feFuncA type="linear" slope="0.5" />
      </feComponentTransfer>
      <feMerge>
        <feMergeNode />
        <feMergeNode in="SourceGraphic" />
      </feMerge>
    </filter>
  </defs>

  <rect width="512" height="512" rx="120" fill="url(#bg_grad)" />
  
  <path d="M0 128H512M0 256H512M0 384H512M128 0V512M256 0V512M384 0V512" stroke="white" stroke-opacity="0.05" stroke-width="1"/>

  <path d="M256 80L110 164V348L256 432V330L180 286V226L256 182V80Z" fill="url(#fold_blue)" opacity="0.9" />
  
  <path d="M256 80L402 164V348L256 432V330L332 286V226L256 182V80Z" fill="#0F1F3D" />

  <path d="M256 182L332 226V286L256 330L180 286L210 268L256 294L295 272V240L256 218L215 240L180 220L256 182Z" fill="url(#fold_gold)" filter="url(#shadow)" />

  <circle cx="256" cy="256" r="12" fill="white" fill-opacity="0.8">
    <animate attributeName="r" values="10;14;10" dur="3s" repeatCount="indefinite" />
  </circle>
</svg>
