<svg width="512" height="512" viewBox="0 0 512 512" fill="none" xmlns="http://www.w3.org/2000/svg" role="img" aria-label="PyFolds Master Visual Identity">
  <defs>
    <linearGradient id="azul_profundo" x1="0" y1="0" x2="512" y2="512" gradientUnits="userSpaceOnUse">
      <stop stop-color="#020617"/> <stop offset="1" stop-color="#1E1B4B"/>
    </linearGradient>
    
    <linearGradient id="dourado_iluminacao" x1="256" y1="244" x2="332" y2="318" gradientUnits="userSpaceOnUse">
      <stop stop-color="#FBBF24"/> <stop offset="1" stop-color="#D97706"/>
    </linearGradient>

    <filter id="textura_luxo" x="-20%" y="-20%" width="140%" height="140%">
      <feTurbulence type="fractalNoise" baseFrequency="0.05" numOctaves="2" result="noise"/>
      <feDiffuseLighting in="noise" lighting-color="#fffgf" surfaceScale="2" result="diffuse">
        <feDistantLight azimuth="45" elevation="60"/>
      </feDiffuseLighting>
      <feComposite operator="in" in2="SourceGraphic" result="texturedText"/>
      <feDropShadow dx="0" dy="8" stdDeviation="10" flood-opacity="0.5"/>
    </filter>

    </defs>

  <rect width="512" height="512" rx="110" fill="url(#azul_profundo)"/>

  <g filter="url(#textura_luxo)">
    <path d="M131 181L256 107L381 181V331L256 405L131 331V181Z" fill="#1C3F8E" fill-opacity="0.3"/>
    
    <path d="M176 212L236 176V336L176 300V212Z" fill="#1E3A8A"/> <path d="M276 176L336 212V300L276 336V176Z" fill="#3B82F6" fill-opacity="0.8"/> <path d="M236 224L284 252L236 280L188 252L236 224Z" fill="#0F172A"/>

    <path d="M256 244L332 288L280 318L204 274L256 244Z" fill="url(#dourado_iluminacao)">
        <animate attributeName="fill-opacity" values="0.8;1;0.8" dur="4s" repeatCount="indefinite" />
    </path>
  </g>

  <path d="M0 256H512M256 0V512" stroke="white" stroke-opacity="0.05" stroke-width="1"/>
  <circle cx="256" cy="256" r="150" stroke="white" stroke-opacity="0.03" stroke-dasharray="10 10"/>
</svg>
