<svg width="512" height="512" viewBox="0 0 512 512" fill="none" xmlns="http://www.w3.org/2000/svg" role="img" aria-label="PyFolds Isometric Icon formed by PF letters">
  <defs>
    <linearGradient id="bg_light" x1="0" y1="0" x2="512" y2="512" gradientUnits="userSpaceOnUse">
      <stop stop-color="#F8FAFC"/> <stop offset="1" stop-color="#E2E8F0"/> </linearGradient>

    <linearGradient id="blue_face_light" x1="0%" y1="0%" x2="100%" y2="100%">
      <stop stop-color="#3B82F6"/> <stop offset="1" stop-color="#1D4ED8"/> </linearGradient>
    <linearGradient id="blue_face_dark" x1="0%" y1="0%" x2="0%" y2="100%">
      <stop stop-color="#1E40AF"/>
      <stop offset="1" stop-color="#172554"/> </linearGradient>
    <linearGradient id="blue_top" x1="0%" y1="0%" x2="0%" y2="100%">
      <stop stop-color="#60A5FA"/> <stop offset="1" stop-color="#3B82F6"/>
    </linearGradient>

    <linearGradient id="gold_face_light" x1="0%" y1="0%" x2="100%" y2="100%">
      <stop stop-color="#FCD34D"/> <stop offset="1" stop-color="#F59E0B"/> </linearGradient>
    <linearGradient id="gold_face_dark" x1="0%" y1="0%" x2="0%" y2="100%">
      <stop stop-color="#D97706"/>
      <stop offset="1" stop-color="#92400E"/>
    </linearGradient>
     <linearGradient id="gold_top" x1="0%" y1="0%" x2="0%" y2="100%">
      <stop stop-color="#FDE68A"/> <stop offset="1" stop-color="#FCD34D"/>
    </linearGradient>
  </defs>

  <rect x="0" y="0" width="512" height="512" rx="96" fill="url(#bg_light)"/>

  <g transform="translate(56, 56)">
      
    <path d="M100 100 L 180 140 V 360 L 100 320 V 100 Z" fill="url(#blue_face_light)"/>
    <path d="M180 140 L 220 120 V 340 L 180 360 V 140 Z" fill="url(#blue_face_dark)"/>
    <path d="M100 100 L 140 80 L 220 120 L 180 140 L 100 100 Z" fill="url(#blue_top)"/>
    
    <path d="M140 80 L 300 80 L 340 100 L 180 100 L 140 80 Z" fill="url(#blue_top)"/>
    <path d="M180 100 L 340 100 L 340 140 L 180 140 L 180 100 Z" fill="url(#blue_face_light)"/>
    
    <path d="M340 100 L 380 120 V 220 L 340 200 V 100 Z" fill="url(#blue_face_dark)"/> <path d="M340 140 L 340 200 L 220 260 L 220 200 L 340 140 Z" fill="url(#blue_face_light)"/> <path d="M220 260 L 180 240 L 180 200 L 220 220 L 220 260 Z" fill="#1E3A8A"/> <g filter="drop-shadow(-4px 4px 8px rgba(0,0,0,0.15))">
        <path d="M240 110 L 360 110 L 400 130 L 280 130 L 240 110 Z" fill="url(#gold_top)"/>
        <path d="M240 130 L 360 130 L 360 170 L 240 170 L 240 130 Z" fill="url(#gold_face_light)"/>
        <path d="M360 130 L 400 130 L 400 170 L 360 170 L 360 130 Z" fill="url(#gold_face_dark)"/>
    </g>

    <g filter="drop-shadow(-4px 4px 8px rgba(0,0,0,0.15))">
        <path d="M240 210 L 320 210 L 360 230 L 280 230 L 240 210 Z" fill="url(#gold_top)"/>
        <path d="M240 230 L 320 230 L 320 270 L 240 270 L 240 230 Z" fill="url(#gold_face_light)"/>
        <path d="M320 230 L 360 230 L 360 270 L 320 270 L 320 230 Z" fill="url(#gold_face_dark)"/>
    </g>
  </g>
</svg>
