<svg width="512" height="512" viewBox="0 0 512 512" fill="none" xmlns="http://www.w3.org/2000/svg">
  <defs>
    <rect id="bg" width="512" height="512" rx="120" fill="#08142D"/>
    
    <linearGradient id="p_fold" x1="256" y1="150" x2="256" y2="362" gradientUnits="userSpaceOnUse">
      <stop stop-color="#3B7BFF"/>
      <stop offset="1" stop-color="#142B5F"/>
    </linearGradient>
    
    <linearGradient id="gold_accent" x1="230" y1="230" x2="330" y2="330" gradientUnits="userSpaceOnUse">
      <stop stop-color="#FFD86A"/>
      <stop offset="1" stop-color="#E5A800"/>
    </linearGradient>
  </defs>

  <use href="#bg"/>

  <path d="M0 256H512M256 0V512" stroke="white" stroke-opacity="0.03" stroke-width="1"/>

  <path d="M180 150H300C330 150 350 170 350 200V240C350 270 330 290 300 290H210V380H180V150Z" fill="url(#p_fold)" />
  
  <path d="M210 230L270 290H330L250 210L210 230Z" fill="#0A1F44" fill-opacity="0.6"/>
  
  <path d="M256 210L350 210L280 290L210 290L256 210Z" fill="url(#gold_accent)">
    <animate attributeName="opacity" values="0.8;1;0.8" dur="4s" repeatCount="indefinite" />
  </path>
  
  <path d="M180 150L210 180V380L180 350V150Z" fill="white" fill-opacity="0.1"/>
</svg>
