<svg width="512" height="512" viewBox="0 0 512 512" fill="none" xmlns="http://www.w3.org/2000/svg" role="img" aria-labelledby="title desc">
  <title id="title">PyFolds icon</title>
  <desc id="desc">Clean geometric blue and yellow PyFolds symbol without texture details.</desc>
  <defs>
    <linearGradient id="b1" x1="56" y1="82" x2="404" y2="424" gradientUnits="userSpaceOnUse">
      <stop stop-color="#2F3462"/>
      <stop offset="1" stop-color="#121B46"/>
    </linearGradient>
    <linearGradient id="b2" x1="184" y1="28" x2="464" y2="272" gradientUnits="userSpaceOnUse">
      <stop stop-color="#6E78C5"/>
      <stop offset="1" stop-color="#4B5DAF"/>
    </linearGradient>
    <linearGradient id="b3" x1="314" y1="122" x2="500" y2="286" gradientUnits="userSpaceOnUse">
      <stop stop-color="#8A93E2"/>
      <stop offset="1" stop-color="#5B6CC4"/>
    </linearGradient>
    <linearGradient id="gold" x1="212" y1="186" x2="346" y2="360" gradientUnits="userSpaceOnUse">
      <stop stop-color="#F5DA77"/>
      <stop offset="1" stop-color="#B7922F"/>
    </linearGradient>
  </defs>

  <path d="M38 174L215 58L289 106L112 222L38 174Z" fill="url(#b1)"/>
  <path d="M217 56L388 170V276L217 162V56Z" fill="url(#b2)"/>
  <path d="M400 186L479 236V338L400 288V186Z" fill="url(#b3)"/>

  <path d="M72 239L158 182V448L72 392V239Z" fill="#1A2556"/>
  <path d="M166 177H268C292 177 311 196 311 220V246L225 301L166 263V177Z" fill="#202D62"/>
  <path d="M311 220V246L366 278L286 328L225 301L311 246V220Z" fill="url(#gold)"/>
  <path d="M225 301L286 328V356C286 381 267 401 243 401H225V301Z" fill="url(#gold)"/>

  <path d="M258 308L397 222V314L335 353H286L258 337V308Z" fill="#3E4F95"/>
  <path d="M286 353L335 353C350 353 364 348 376 339L418 372C389 392 355 404 321 404H286V353Z" fill="#2A376F"/>

  <path d="M38 174L215 58L388 170V276L479 236V338L418 372C389 392 355 404 321 404H243C219 404 200 384 200 360V323L72 239V392L38 372V174Z" stroke="#AFB9F2" stroke-opacity="0.45" stroke-width="3"/>
</svg>
