<svg width="512" height="512" viewBox="0 0 512 512" fill="none" xmlns="http://www.w3.org/2000/svg" role="img" aria-labelledby="title desc">
  <title id="title">PyFolds icon</title>
  <desc id="desc">Origami-inspired hexagonal symbol with a golden fold over a blue technical core.</desc>
  <defs>
    <linearGradient id="bg" x1="76" y1="68" x2="436" y2="444" gradientUnits="userSpaceOnUse">
      <stop stop-color="#071229"/>
      <stop offset="1" stop-color="#0E285A"/>
    </linearGradient>
    <linearGradient id="core" x1="128" y1="122" x2="390" y2="388" gradientUnits="userSpaceOnUse">
      <stop stop-color="#5F8FFF"/>
      <stop offset="1" stop-color="#274DA4"/>
    </linearGradient>
    <linearGradient id="fold" x1="203" y1="174" x2="323" y2="312" gradientUnits="userSpaceOnUse">
      <stop stop-color="#FFE08A"/>
      <stop offset="1" stop-color="#D99B00"/>
    </linearGradient>
  </defs>

  <rect x="32" y="32" width="448" height="448" rx="112" fill="url(#bg)"/>
  <path d="M256 94L394 175V337L256 418L118 337V175L256 94Z" fill="url(#core)"/>

  <path d="M170 210L235 172V341L170 303V210Z" fill="#173A7B"/>
  <path d="M282 172L346 210V303L282 341V172Z" fill="#386BD7"/>
  <path d="M188 260L255 222L322 260L255 298L188 260Z" fill="#173A7B"/>

  <path d="M218 204L306 255L269 277L181 226L218 204Z" fill="url(#fold)"/>
  <path d="M230 283L318 334L281 356L193 305L230 283Z" fill="url(#fold)"/>

  <path d="M256 94L394 175V337L256 418L118 337V175L256 94Z" stroke="#8DB2FF" stroke-opacity="0.45" stroke-width="4"/>
</svg>
