<svg width="1600" height="460" viewBox="0 0 1600 460" fill="none" xmlns="http://www.w3.org/2000/svg" role="img" aria-labelledby="title desc">
  <title id="title">PyFolds README banner</title>
  <desc id="desc">Clean PyFolds banner in blue and yellow without texture or hatch lines.</desc>
  <defs>
    <linearGradient id="bg" x1="0" y1="0" x2="1600" y2="460" gradientUnits="userSpaceOnUse">
      <stop stop-color="#0A122A"/>
      <stop offset="1" stop-color="#111C3A"/>
    </linearGradient>
    <linearGradient id="word" x1="540" y1="120" x2="1480" y2="350" gradientUnits="userSpaceOnUse">
      <stop stop-color="#9CA9F0"/>
      <stop offset="1" stop-color="#5B6FCA"/>
    </linearGradient>
    <linearGradient id="wordGlow" x1="620" y1="130" x2="1490" y2="340" gradientUnits="userSpaceOnUse">
      <stop stop-color="#F5DA77"/>
      <stop offset="1" stop-color="#B7922F"/>
    </linearGradient>
    <linearGradient id="b1" x1="100" y1="94" x2="430" y2="385" gradientUnits="userSpaceOnUse">
      <stop stop-color="#2F3462"/>
      <stop offset="1" stop-color="#121B46"/>
    </linearGradient>
    <linearGradient id="b2" x1="220" y1="60" x2="472" y2="270" gradientUnits="userSpaceOnUse">
      <stop stop-color="#6E78C5"/>
      <stop offset="1" stop-color="#4B5DAF"/>
    </linearGradient>
    <linearGradient id="b3" x1="330" y1="130" x2="506" y2="286" gradientUnits="userSpaceOnUse">
      <stop stop-color="#8A93E2"/>
      <stop offset="1" stop-color="#5B6CC4"/>
    </linearGradient>
    <linearGradient id="gold" x1="222" y1="180" x2="344" y2="350" gradientUnits="userSpaceOnUse">
      <stop stop-color="#F5DA77"/>
      <stop offset="1" stop-color="#B7922F"/>
    </linearGradient>
  </defs>

  <rect width="1600" height="460" rx="24" fill="url(#bg)"/>

  <g transform="translate(30,0)">
    <path d="M38 174L215 58L289 106L112 222L38 174Z" fill="url(#b1)"/>
    <path d="M217 56L388 170V276L217 162V56Z" fill="url(#b2)"/>
    <path d="M400 186L479 236V338L400 288V186Z" fill="url(#b3)"/>

    <path d="M72 239L158 182V448L72 392V239Z" fill="#1A2556"/>
    <path d="M166 177H268C292 177 311 196 311 220V246L225 301L166 263V177Z" fill="#202D62"/>
    <path d="M311 220V246L366 278L286 328L225 301L311 246V220Z" fill="url(#gold)"/>
    <path d="M225 301L286 328V356C286 381 267 401 243 401H225V301Z" fill="url(#gold)"/>

    <path d="M258 308L397 222V314L335 353H286L258 337V308Z" fill="#3E4F95"/>
    <path d="M286 353L335 353C350 353 364 348 376 339L418 372C389 392 355 404 321 404H286V353Z" fill="#2A376F"/>
  </g>

  <text x="560" y="292" fill="url(#word)" font-family="Inter, Segoe UI, Arial, sans-serif" font-size="230" font-weight="800" letter-spacing="2">PyFolds</text>
  <text x="570" y="300" fill="url(#wordGlow)" fill-opacity="0.36" font-family="Inter, Segoe UI, Arial, sans-serif" font-size="230" font-weight="800" letter-spacing="2">PyFolds</text>
</svg>
